<mxfile host="drawio-plugin" modified="2024-01-16T17:41:38.563Z" agent="5.0 (Windows NT 6.2; Win64; x64) AppleWebKit/537.36 (KHTML, like Gecko) Chrome/104.0.5112.102 Safari/537.36" etag="t2NDBNaItzKmWyyEJk1X" version="20.5.3" type="embed"><diagram id="RtrrDdBwXUU5Bzf3hxCM" name="Page-1"><mxGraphModel dx="1595" dy="1024" grid="0" gridSize="10" guides="1" tooltips="1" connect="1" arrows="1" fold="1" page="0" pageScale="1" pageWidth="850" pageHeight="1100" math="0" shadow="0"><root><mxCell id="0"/><mxCell id="1" parent="0"/><mxCell id="2" value="C" style="ellipse;whiteSpace=wrap;html=1;aspect=fixed;fillColor=#fa6800;fontColor=#000000;strokeColor=#C73500;fontSize=21;" parent="1" vertex="1"><mxGeometry x="740" y="80" width="30" height="30" as="geometry"/></mxCell><mxCell id="3" value="D" style="ellipse;whiteSpace=wrap;html=1;aspect=fixed;fillColor=#76608a;fontColor=#ffffff;strokeColor=#432D57;fontSize=21;" parent="1" vertex="1"><mxGeometry y="180" width="30" height="30" as="geometry"/></mxCell><mxCell id="4" value="G" style="ellipse;whiteSpace=wrap;html=1;aspect=fixed;fillColor=#76608a;fontColor=#ffffff;strokeColor=#432D57;fontSize=21;" parent="1" vertex="1"><mxGeometry x="670" y="180" width="30" height="30" as="geometry"/></mxCell><mxCell id="5" value="H" style="ellipse;whiteSpace=wrap;html=1;aspect=fixed;fillColor=#76608a;fontColor=#ffffff;strokeColor=#432D57;fontSize=21;" parent="1" vertex="1"><mxGeometry x="800" y="180" width="30" height="30" as="geometry"/></mxCell><mxCell id="6" value="&lt;font style=&quot;font-size: 19px;&quot;&gt;B&lt;/font&gt;" style="ellipse;whiteSpace=wrap;html=1;aspect=fixed;fillColor=#fa6800;fontColor=#000000;strokeColor=#C73500;" parent="1" vertex="1"><mxGeometry x="60" y="80" width="30" height="30" as="geometry"/></mxCell><mxCell id="7" value="E" style="ellipse;whiteSpace=wrap;html=1;aspect=fixed;fillColor=#76608a;fontColor=#ffffff;strokeColor=#432D57;fontSize=21;" parent="1" vertex="1"><mxGeometry x="130" y="180" width="30" height="30" as="geometry"/></mxCell><mxCell id="8" value="" style="endArrow=block;dashed=1;endFill=0;endSize=12;html=1;rounded=0;entryX=1;entryY=0;entryDx=0;entryDy=0;exitX=-0.063;exitY=0.335;exitDx=0;exitDy=0;exitPerimeter=0;" parent="1" target="6" edge="1"><mxGeometry width="160" relative="1" as="geometry"><mxPoint x="376.8499999999999" y="16.75" as="sourcePoint"/><mxPoint x="290" y="24.330000000000013" as="targetPoint"/></mxGeometry></mxCell><mxCell id="9" value="" style="endArrow=block;dashed=1;endFill=0;endSize=12;html=1;rounded=0;entryX=0;entryY=0;entryDx=0;entryDy=0;exitX=1;exitY=0.5;exitDx=0;exitDy=0;" parent="1" target="2" edge="1"><mxGeometry width="160" relative="1" as="geometry"><mxPoint x="430" y="25" as="sourcePoint"/><mxPoint x="590" y="20" as="targetPoint"/></mxGeometry></mxCell><mxCell id="10" value="" style="endArrow=block;dashed=1;endFill=0;endSize=12;html=1;rounded=0;exitX=0.5;exitY=1;exitDx=0;exitDy=0;entryX=1;entryY=0;entryDx=0;entryDy=0;" parent="1" source="6" target="3" edge="1"><mxGeometry width="160" relative="1" as="geometry"><mxPoint x="40" y="330" as="sourcePoint"/><mxPoint x="200" y="330" as="targetPoint"/></mxGeometry></mxCell><mxCell id="11" value="" style="endArrow=block;dashed=1;endFill=0;endSize=12;html=1;rounded=0;entryX=0;entryY=0;entryDx=0;entryDy=0;" parent="1" target="7" edge="1"><mxGeometry width="160" relative="1" as="geometry"><mxPoint x="80" y="110" as="sourcePoint"/><mxPoint x="360" y="340" as="targetPoint"/></mxGeometry></mxCell><mxCell id="12" value="" style="endArrow=block;dashed=1;endFill=0;endSize=12;html=1;rounded=0;exitX=0.5;exitY=1;exitDx=0;exitDy=0;entryX=1;entryY=0;entryDx=0;entryDy=0;" parent="1" source="2" target="4" edge="1"><mxGeometry width="160" relative="1" as="geometry"><mxPoint x="385" y="320" as="sourcePoint"/><mxPoint x="545" y="320" as="targetPoint"/></mxGeometry></mxCell><mxCell id="13" value="" style="endArrow=block;dashed=1;endFill=0;endSize=12;html=1;rounded=0;exitX=1;exitY=1;exitDx=0;exitDy=0;entryX=0;entryY=0;entryDx=0;entryDy=0;" parent="1" source="2" target="5" edge="1"><mxGeometry width="160" relative="1" as="geometry"><mxPoint x="700" y="330" as="sourcePoint"/><mxPoint x="860" y="330" as="targetPoint"/></mxGeometry></mxCell><mxCell id="14" value="I" style="ellipse;whiteSpace=wrap;html=1;aspect=fixed;fillColor=#e3c800;fontColor=#000000;strokeColor=#B09500;fontSize=21;" parent="1" vertex="1"><mxGeometry x="-70" y="260" width="30" height="30" as="geometry"/></mxCell><mxCell id="15" value="" style="endArrow=block;dashed=1;endFill=0;endSize=12;html=1;rounded=0;fontSize=21;entryX=1;entryY=0;entryDx=0;entryDy=0;exitX=0.5;exitY=1;exitDx=0;exitDy=0;" parent="1" source="3" target="14" edge="1"><mxGeometry width="160" relative="1" as="geometry"><mxPoint x="20" y="210" as="sourcePoint"/><mxPoint x="220" y="360" as="targetPoint"/></mxGeometry></mxCell><mxCell id="16" value="J" style="ellipse;whiteSpace=wrap;html=1;aspect=fixed;fillColor=#e3c800;fontColor=#000000;strokeColor=#B09500;fontSize=21;" parent="1" vertex="1"><mxGeometry x="30" y="260" width="30" height="30" as="geometry"/></mxCell><mxCell id="17" value="" style="endArrow=block;dashed=1;endFill=0;endSize=12;html=1;rounded=0;fontSize=21;exitX=0.5;exitY=1;exitDx=0;exitDy=0;" parent="1" source="3" edge="1"><mxGeometry width="160" relative="1" as="geometry"><mxPoint x="110" y="240" as="sourcePoint"/><mxPoint x="40" y="260" as="targetPoint"/></mxGeometry></mxCell><mxCell id="18" value="K" style="ellipse;whiteSpace=wrap;html=1;aspect=fixed;fillColor=#e3c800;fontColor=#000000;strokeColor=#B09500;fontSize=21;" parent="1" vertex="1"><mxGeometry x="129" y="259" width="30" height="30" as="geometry"/></mxCell><mxCell id="19" value="" style="endArrow=block;dashed=1;endFill=0;endSize=12;html=1;rounded=0;fontSize=21;exitX=0.5;exitY=1;exitDx=0;exitDy=0;entryX=0.5;entryY=0;entryDx=0;entryDy=0;" parent="1" source="7" target="18" edge="1"><mxGeometry width="160" relative="1" as="geometry"><mxPoint x="80" y="350" as="sourcePoint"/><mxPoint x="240" y="350" as="targetPoint"/></mxGeometry></mxCell><mxCell id="20" value="Y" style="ellipse;whiteSpace=wrap;html=1;aspect=fixed;fillColor=#e3c800;fontColor=#000000;strokeColor=#B09500;fontSize=21;" parent="1" vertex="1"><mxGeometry x="240" y="260" width="30" height="30" as="geometry"/></mxCell><mxCell id="21" value="" style="endArrow=block;dashed=1;endFill=0;endSize=12;html=1;rounded=0;fontSize=21;" parent="1" edge="1"><mxGeometry width="160" relative="1" as="geometry"><mxPoint x="150" y="210" as="sourcePoint"/><mxPoint x="250" y="260" as="targetPoint"/></mxGeometry></mxCell><mxCell id="22" value="A" style="ellipse;whiteSpace=wrap;html=1;aspect=fixed;fillColor=#008a00;fontColor=#ffffff;strokeColor=#005700;fontSize=21;" parent="1" vertex="1"><mxGeometry x="371" width="54" height="54" as="geometry"/></mxCell><mxCell id="23" value="&lt;div style=&quot;background-color:#2b2b2b;color:#a9b7c6;font-family:'JetBrains Mono',monospace;font-size:9,8pt;&quot;&gt;&lt;pre&gt;BinaryTree tree = &lt;span style=&quot;color:#cc7832;&quot;&gt;new &lt;/span&gt;BinaryTree(&lt;span style=&quot;color:#6a8759;&quot;&gt;'A'&lt;/span&gt;)&lt;span style=&quot;color:#cc7832;&quot;&gt;;&lt;br&gt;&lt;/span&gt;tree.&lt;span style=&quot;color:#9876aa;&quot;&gt;root&lt;/span&gt;.&lt;span style=&quot;color:#9876aa;&quot;&gt;left &lt;/span&gt;= &lt;span style=&quot;color:#cc7832;&quot;&gt;new &lt;/span&gt;Node(&lt;span style=&quot;color:#6a8759;&quot;&gt;'B'&lt;/span&gt;)&lt;span style=&quot;color:#cc7832;&quot;&gt;;&lt;br&gt;&lt;/span&gt;tree.&lt;span style=&quot;color:#9876aa;&quot;&gt;root&lt;/span&gt;.&lt;span style=&quot;color:#9876aa;&quot;&gt;right &lt;/span&gt;= &lt;span style=&quot;color:#cc7832;&quot;&gt;new &lt;/span&gt;Node(&lt;span style=&quot;color:#6a8759;&quot;&gt;'C'&lt;/span&gt;)&lt;span style=&quot;color:#cc7832;&quot;&gt;;&lt;br&gt;&lt;/span&gt;tree.&lt;span style=&quot;color:#9876aa;&quot;&gt;root&lt;/span&gt;.&lt;span style=&quot;color:#9876aa;&quot;&gt;left&lt;/span&gt;.&lt;span style=&quot;color:#9876aa;&quot;&gt;left &lt;/span&gt;= &lt;span style=&quot;color:#cc7832;&quot;&gt;new &lt;/span&gt;Node(&lt;span style=&quot;color:#6a8759;&quot;&gt;'D'&lt;/span&gt;)&lt;span style=&quot;color:#cc7832;&quot;&gt;;&lt;br&gt;&lt;/span&gt;tree.&lt;span style=&quot;color:#9876aa;&quot;&gt;root&lt;/span&gt;.&lt;span style=&quot;color:#9876aa;&quot;&gt;left&lt;/span&gt;.&lt;span style=&quot;color:#9876aa;&quot;&gt;right &lt;/span&gt;= &lt;span style=&quot;color:#cc7832;&quot;&gt;new &lt;/span&gt;Node(&lt;span style=&quot;color:#6a8759;&quot;&gt;'E'&lt;/span&gt;)&lt;span style=&quot;color:#cc7832;&quot;&gt;;&lt;br&gt;&lt;/span&gt;tree.&lt;span style=&quot;color:#9876aa;&quot;&gt;root&lt;/span&gt;.&lt;span style=&quot;color:#9876aa;&quot;&gt;right&lt;/span&gt;.&lt;span style=&quot;color:#9876aa;&quot;&gt;left &lt;/span&gt;= &lt;span style=&quot;color:#cc7832;&quot;&gt;new &lt;/span&gt;Node(&lt;span style=&quot;color:#6a8759;&quot;&gt;'G'&lt;/span&gt;)&lt;span style=&quot;color:#cc7832;&quot;&gt;;&lt;br&gt;&lt;/span&gt;tree.&lt;span style=&quot;color:#9876aa;&quot;&gt;root&lt;/span&gt;.&lt;span style=&quot;color:#9876aa;&quot;&gt;right&lt;/span&gt;.&lt;span style=&quot;color:#9876aa;&quot;&gt;right &lt;/span&gt;= &lt;span style=&quot;color:#cc7832;&quot;&gt;new &lt;/span&gt;Node(&lt;span style=&quot;color:#6a8759;&quot;&gt;'H'&lt;/span&gt;)&lt;span style=&quot;color:#cc7832;&quot;&gt;;&lt;br&gt;&lt;/span&gt;tree.&lt;span style=&quot;color:#9876aa;&quot;&gt;root&lt;/span&gt;.&lt;span style=&quot;color:#9876aa;&quot;&gt;left&lt;/span&gt;.&lt;span style=&quot;color:#9876aa;&quot;&gt;left&lt;/span&gt;.&lt;span style=&quot;color:#9876aa;&quot;&gt;left &lt;/span&gt;= &lt;span style=&quot;color:#cc7832;&quot;&gt;new &lt;/span&gt;Node(&lt;span style=&quot;color:#6a8759;&quot;&gt;'I'&lt;/span&gt;)&lt;span style=&quot;color:#cc7832;&quot;&gt;;&lt;br&gt;&lt;/span&gt;tree.&lt;span style=&quot;color:#9876aa;&quot;&gt;root&lt;/span&gt;.&lt;span style=&quot;color:#9876aa;&quot;&gt;left&lt;/span&gt;.&lt;span style=&quot;color:#9876aa;&quot;&gt;left&lt;/span&gt;.&lt;span style=&quot;color:#9876aa;&quot;&gt;right &lt;/span&gt;= &lt;span style=&quot;color:#cc7832;&quot;&gt;new &lt;/span&gt;Node(&lt;span style=&quot;color:#6a8759;&quot;&gt;'J'&lt;/span&gt;)&lt;span style=&quot;color:#cc7832;&quot;&gt;;&lt;br&gt;&lt;/span&gt;tree.&lt;span style=&quot;color:#9876aa;&quot;&gt;root&lt;/span&gt;.&lt;span style=&quot;color:#9876aa;&quot;&gt;left&lt;/span&gt;.&lt;span style=&quot;color:#9876aa;&quot;&gt;right&lt;/span&gt;.&lt;span style=&quot;color:#9876aa;&quot;&gt;left &lt;/span&gt;= &lt;span style=&quot;color:#cc7832;&quot;&gt;new &lt;/span&gt;Node(&lt;span style=&quot;color:#6a8759;&quot;&gt;'K'&lt;/span&gt;)&lt;span style=&quot;color:#cc7832;&quot;&gt;;&lt;br&gt;&lt;/span&gt;tree.&lt;span style=&quot;color:#9876aa;&quot;&gt;root&lt;/span&gt;.&lt;span style=&quot;color:#9876aa;&quot;&gt;left&lt;/span&gt;.&lt;span style=&quot;color:#9876aa;&quot;&gt;right&lt;/span&gt;.&lt;span style=&quot;color:#9876aa;&quot;&gt;right &lt;/span&gt;= &lt;span style=&quot;color:#cc7832;&quot;&gt;new &lt;/span&gt;Node(&lt;span style=&quot;color:#6a8759;&quot;&gt;'Y'&lt;/span&gt;)&lt;span style=&quot;color:#cc7832;&quot;&gt;;&lt;/span&gt;&lt;/pre&gt;&lt;/div&gt;" style="text;html=1;align=center;verticalAlign=middle;resizable=0;points=[];autosize=1;strokeColor=none;fillColor=none;fontSize=21;" parent="1" vertex="1"><mxGeometry x="-230" y="320" width="520" height="330" as="geometry"/></mxCell><mxCell id="24" value="&lt;div style=&quot;background-color:#2b2b2b;color:#a9b7c6;font-family:'JetBrains Mono',monospace;font-size:9,8pt;&quot;&gt;&lt;pre&gt;Queue&amp;lt;Node&amp;gt; queue = &lt;span style=&quot;color:#cc7832;&quot;&gt;new &lt;/span&gt;LinkedList&amp;lt;&amp;gt;()&lt;span style=&quot;color:#cc7832;&quot;&gt;;&lt;br&gt;&lt;/span&gt;queue.add(&lt;span style=&quot;color:#9876aa;&quot;&gt;root&lt;/span&gt;)&lt;span style=&quot;color:#cc7832;&quot;&gt;;&lt;br&gt;&lt;/span&gt;&lt;span style=&quot;color:#cc7832;&quot;&gt;while &lt;/span&gt;(!queue.isEmpty()) {&lt;br&gt;    Node tempNode = queue.poll()&lt;span style=&quot;color:#cc7832;&quot;&gt;;&lt;br&gt;&lt;/span&gt;&lt;span style=&quot;color:#cc7832;&quot;&gt;    &lt;/span&gt;System.&lt;span style=&quot;color:#9876aa;font-style:italic;&quot;&gt;out&lt;/span&gt;.print(tempNode.&lt;span style=&quot;color:#9876aa;&quot;&gt;data &lt;/span&gt;+ &lt;span style=&quot;color:#6a8759;&quot;&gt;&quot; &quot;&lt;/span&gt;)&lt;span style=&quot;color:#cc7832;&quot;&gt;;&lt;br&gt;&lt;/span&gt;&lt;span style=&quot;color:#cc7832;&quot;&gt;&lt;br&gt;&lt;/span&gt;&lt;span style=&quot;color:#cc7832;&quot;&gt;    if &lt;/span&gt;(tempNode.&lt;span style=&quot;color:#9876aa;&quot;&gt;left &lt;/span&gt;!= &lt;span style=&quot;color:#cc7832;&quot;&gt;null&lt;/span&gt;) {&lt;br&gt;        queue.add(tempNode.&lt;span style=&quot;color:#9876aa;&quot;&gt;left&lt;/span&gt;)&lt;span style=&quot;color:#cc7832;&quot;&gt;;&lt;br&gt;&lt;/span&gt;&lt;span style=&quot;color:#cc7832;&quot;&gt;    &lt;/span&gt;}&lt;br&gt;&lt;br&gt;    &lt;span style=&quot;color:#cc7832;&quot;&gt;if &lt;/span&gt;(tempNode.&lt;span style=&quot;color:#9876aa;&quot;&gt;right &lt;/span&gt;!= &lt;span style=&quot;color:#cc7832;&quot;&gt;null&lt;/span&gt;) {&lt;br&gt;        queue.add(tempNode.&lt;span style=&quot;color:#9876aa;&quot;&gt;right&lt;/span&gt;)&lt;span style=&quot;color:#cc7832;&quot;&gt;;&lt;br&gt;&lt;/span&gt;&lt;span style=&quot;color:#cc7832;&quot;&gt;    &lt;/span&gt;}&lt;br&gt;}&lt;/pre&gt;&lt;/div&gt;" style="text;whiteSpace=wrap;html=1;fontSize=21;" parent="1" vertex="1"><mxGeometry x="330" y="310" width="520" height="420" as="geometry"/></mxCell><mxCell id="26" value="&lt;font style=&quot;font-size: 21px;&quot;&gt;A &lt;font style=&quot;font-size: 21px;&quot; color=&quot;#ff8000&quot;&gt;B C &lt;/font&gt;&lt;font style=&quot;font-size: 21px;&quot; color=&quot;#a680b8&quot;&gt;D E G H &lt;/font&gt;&lt;font style=&quot;font-size: 21px;&quot; color=&quot;#ffff00&quot;&gt;I J K Y&lt;/font&gt;&lt;/font&gt;" style="text;html=1;align=center;verticalAlign=middle;resizable=0;points=[];autosize=1;strokeColor=none;fillColor=none;fontColor=#00FF00;" vertex="1" parent="1"><mxGeometry x="290" y="100" width="230" height="40" as="geometry"/></mxCell></root></mxGraphModel></diagram></mxfile>